<?xml version="1.0"?>
<svg xmlns="http://www.w3.org/2000/svg" viewBox="0 0 26 26" preserveAspectRatio="none" width="28" height="28">
    <path d="M 17.90625 0 C 17.58025 -0.001625 17.2475 0.1285 17 0.375 L 15.5625 1.8125 L 19.15625 5.4375 L 20.625 3.96875 C 21.12 3.47675 21.126 2.6855 20.625 2.1875 L 18.8125 0.375 C 18.562 0.126 18.23225 0.001625 17.90625 0 z M 14.25 2.90625 L 8.40625 8.78125 C 8.33325 8.84625 8.24775 8.93125 8.21875 9.03125 L 6.96875 13.3125 C 6.95375 13.3615 6.9375 13.41875 6.9375 13.46875 C 6.9375 13.60875 6.99175 13.74175 7.09375 13.84375 C 7.23175 13.98075 7.438 14.02375 7.625 13.96875 L 11.9375 12.71875 C 12.0445 12.68775 12.1225 12.61125 12.1875 12.53125 L 18.03125 6.6875 L 14.25 2.90625 z M 1 6 C 0.449 6 0 6.449 0 7 L 0 19 C 0 19.551 0.449 20 1 20 L 25 20 C 25.551 20 26 19.551 26 19 L 26 7 C 26 6.449 25.551 6 25 6 L 20.8125 6 L 18.8125 8 L 24 8 L 24 18 L 2 18 L 2 8 L 7 8 L 9 6 L 1 6 z M 9.1875 9.5625 L 11.03125 9.9375 L 11.40625 11.75 L 8.96875 12.46875 L 8.46875 11.96875 L 9.1875 9.5625 z"/>
</svg>
